Input #0, wav, from '/Users/abuynits/CLionProjects/ffmpegTest5/Recordings/inputRecording.wav':
  Metadata:
    title           : New Recording 26
    encoder         : Lavf58.76.100
  Duration: 00:00:19.73, bitrate: 768 kb/s
  Stream #0:0: Audio: pcm_s16le ([1][0][0][0] / 0x0001), 48000 Hz, 1 channels, s16, 768 kb/s
Output #0, wav, to '/Users/abuynits/CLionProjects/ffmpegTest5/Recordings/outputRecording.wav':
  Stream #0:0: Audio: pcm_s16le, 48000 Hz, 1 channels, s16, 768 kb/s
[astats @ 0x7f8963c05740] Overall
[astats @ 0x7f8963c05740] DC offset: -0.001589
[astats @ 0x7f8963c05740] Min level: -144.000000
[astats @ 0x7f8963c05740] Max level: 45.000000
[astats @ 0x7f8963c05740] Min difference: 0.000000
[astats @ 0x7f8963c05740] Max difference: 24.000000
[astats @ 0x7f8963c05740] Mean difference: 5.579235
[astats @ 0x7f8963c05740] RMS difference: 7.100758
[astats @ 0x7f8963c05740] Peak level dB: -47.141484
[astats @ 0x7f8963c05740] RMS level dB: -53.638145
[astats @ 0x7f8963c05740] RMS peak dB: -53.638145
[astats @ 0x7f8963c05740] RMS trough dB: -53.638145
[astats @ 0x7f8963c05740] Flat factor: 0.000000
[astats @ 0x7f8963c05740] Peak count: 2.000000
[astats @ 0x7f8963c05740] Noise floor dB: nan
[astats @ 0x7f8963c05740] Noise floor count: 0.000000
[astats @ 0x7f8963c05740] Entropy: 0.375417
[astats @ 0x7f8963c05740] Bit depth: 16/16
[astats @ 0x7f8963c05740] Number of samples: 184
[astats @ 0x7f8963c05500] Overall
[astats @ 0x7f8963c05500] DC offset: 0.000642
[astats @ 0x7f8963c05500] Min level: -0.041168
[astats @ 0x7f8963c05500] Max level: 0.035858
[astats @ 0x7f8963c05500] Min difference: 0.000000
[astats @ 0x7f8963c05500] Max difference: 0.011627
[astats @ 0x7f8963c05500] Mean difference: 0.002582
[astats @ 0x7f8963c05500] RMS difference: 0.003579
[astats @ 0x7f8963c05500] Peak level dB: -27.708760
[astats @ 0x7f8963c05500] RMS level dB: -37.041779
[astats @ 0x7f8963c05500] RMS peak dB: -36.871273
[astats @ 0x7f8963c05500] RMS trough dB: -39.122530
[astats @ 0x7f8963c05500] Flat factor: 0.000000
[astats @ 0x7f8963c05500] Peak count: 2.000000
[astats @ 0x7f8963c05500] Noise floor dB: -29.448557
[astats @ 0x7f8963c05500] Noise floor count: 14.000000
[astats @ 0x7f8963c05500] Entropy: 0.581805
[astats @ 0x7f8963c05500] Bit depth: 16/16
[astats @ 0x7f8963c05500] Number of samples: 1024
[astats @ 0x7f8963c05500] Number of NaNs: 0.000000
[astats @ 0x7f8963c05500] Number of Infs: 0.000000
[astats @ 0x7f8963c05500] Number of denormals: 0.000000
[wav @ 0x7f8963f065c0] Estimating duration from bitrate, this may be inaccurate
Input #0, wav, from '/Users/abuynits/CLionProjects/ffmpegTest5/Recordings/outputRecording.wav':
  Metadata:
    encoder         : Lavf59.16.100
  Duration: 00:00:14.77, bitrate: 768 kb/s
  Stream #0:0: Audio: pcm_s16le ([1][0][0][0] / 0x0001), 48000 Hz, 1 channels, s16, 768 kb/s
Output #0, wav, to '/Users/abuynits/CLionProjects/ffmpegTest5/Recordings/finalOutput.wav':
  Stream #0:0: Audio: pcm_s16le, 48000 Hz, 1 channels, s16, 768 kb/s
[wav @ 0x7f8963f065c0] Packet corrupt (stream = 0, dts = NOPTS).
